# xmcd CD database file
#
# Track frame offsets:
#	150
#	20269
#	34318
#	56010
#	87416
#	104219
#	118621
#	134939
#	157868
#	202023
#	224675
#	259542
#
# Disc length: 3750 seconds
#
# Revision: 0
# Processed by: cddbd v1.5.1PL0 Copyright (c) Steve Scherf et al.
# Submitted via: CDex 1.51
#
DISCID=b80ea40c
DTITLE=Journey - Live My Life Disc 2
DYEAR=1979
DGENRE=Hard Rock
TTITLE0=City Of The Angels
TTITLE1=Do You Recall
TTITLE2=Daydream
TTITLE3=Of A Lifetime
TTITLE4=Lady Luck
TTITLE5=Can Do
TTITLE6=Just The Same Way
TTITLE7=Lovin' You Is Easy
TTITLE8=Moon Theme/Wheel In The Sky
TTITLE9=Patiently
TTITLE10=Opened The Door
TTITLE11=She Makes Me (Feel Alright)
EXTD=YEAR: 1979
EXTT0=
EXTT1=
EXTT2=
EXTT3=
EXTT4=
EXTT5=
EXTT6=
EXTT7=
EXTT8=
EXTT9=
EXTT10=
EXTT11=
PLAYORDER=
